<svg xmlns="http://www.w3.org/2000/svg" viewBox="0 0 1000 940" color="#a7a8aa">
<defs><linearGradient id="teiden-quarter-zip-2-front-shade" x1="0" x2="1"><stop offset="0" stop-color="#000" stop-opacity=".10"/><stop offset=".5" stop-color="#fff" stop-opacity=".06"/><stop offset="1" stop-color="#000" stop-opacity=".12"/></linearGradient><clipPath id="teiden-quarter-zip-2-front-clip"><path d="M400 110 Q500 175 600 110 L720 140 Q830 290 910 700 L840 722 L716 370 L715 870 L285 870 L284 370 L160 722 L90 700 Q170 290 280 140 Z"/></clipPath></defs>

<path d="M400 110 Q500 175 600 110 L720 140 Q830 290 910 700 L840 722 L716 370 L715 870 L285 870 L284 370 L160 722 L90 700 Q170 290 280 140 Z" fill="currentColor" stroke="#000" stroke-opacity=".22" stroke-width="4" stroke-linejoin="round"/>
<svg x="560" y="240" width="110" height="80" viewBox="0 0 600 420" preserveAspectRatio="xMidYMid meet" overflow="visible">
  
  <rect x="150" y="60" width="270" height="130" rx="22" fill="none" stroke="#5e1f2a" stroke-width="18"/>
  <rect x="420" y="98" width="28" height="54" rx="6" fill="#5e1f2a"/>
  <rect x="176" y="86" width="56" height="78" rx="8" fill="#5e1f2a"/>
  <text x="300" y="330" text-anchor="middle" font-family="'Zen Old Mincho', 'Hiragino Mincho ProN', serif" font-weight="900" font-size="78" letter-spacing="6" fill="#5e1f2a">低電力モード</text>
</svg>

<path d="M400 110 Q500 175 600 110 L720 140 Q830 290 910 700 L840 722 L716 370 L715 870 L285 870 L284 370 L160 722 L90 700 Q170 290 280 140 Z" fill="url(#teiden-quarter-zip-2-front-shade)"/>
<path d="M400 110 Q500 175 600 110" fill="none" stroke="#000" stroke-opacity=".22" stroke-width="4"/><path d="M286 845 L714 845 M97 678 L165 700 M903 678 L835 700" fill="none" stroke="#000" stroke-opacity=".22" stroke-width="4"/><path d="M410 112 L410 60 Q500 40 590 60 L590 112" fill="currentColor" stroke="#000" stroke-opacity=".22" stroke-width="4"/><path d="M500 58 L500 360" fill="none" stroke="#000" stroke-opacity=".45" stroke-width="6"/><rect x="493" y="70" width="14" height="30" rx="4" fill="#c9c9c9"/>
</svg>
